<svg width="28" height="28" viewBox="0 0 28 28" fill="none" xmlns="http://www.w3.org/2000/svg">
<path d="M3.40143 6.92909H5.66906H23.8101" stroke="#202020" stroke-width="2" stroke-linecap="round" stroke-linejoin="round"/>
<path d="M9.07051 6.9291V4.61941C9.07051 4.00684 9.30942 3.41935 9.73468 2.9862C10.1599 2.55305 10.7367 2.30971 11.3381 2.30971H15.8734C16.4748 2.30971 17.0516 2.55305 17.4768 2.9862C17.9021 3.41935 18.141 4.00684 18.141 4.61941V6.9291M21.5425 6.9291V23.097C21.5425 23.7096 21.3036 24.297 20.8783 24.7302C20.453 25.1633 19.8762 25.4067 19.2748 25.4067H7.9367C7.33528 25.4067 6.7585 25.1633 6.33324 24.7302C5.90798 24.297 5.66907 23.7096 5.66907 23.097V6.9291H21.5425Z" stroke="#202020" stroke-width="2" stroke-linecap="round" stroke-linejoin="round"/>
<path d="M11.3381 12.7033V19.6324" stroke="#202020" stroke-width="2" stroke-linecap="round" stroke-linejoin="round"/>
<path d="M15.8734 12.7033V19.6324" stroke="#202020" stroke-width="2" stroke-linecap="round" stroke-linejoin="round"/>
</svg>
